<svg xmlns="http://www.w3.org/2000/svg" height="512pt" version="1.1" viewBox="0 -31 512 512" width="512pt">
<g id="surface1">
<path d="M 437 120 L 75 120 C 66.597656 120 60 126.597656 60 135 L 60 255 C 60 362.398438 148.597656 450 256 450 C 363.402344 450 452 362.398438 452 255 L 452 135 C 452 126.597656 445.402344 120 437 120 Z M 437 120 " style=" stroke:none;fill-rule:nonzero;fill:rgb(87.058824%,92.54902%,94.509804%);fill-opacity:1;"/>
<path d="M 452 135 L 452 255 C 452 362.398438 363.402344 450 256 450 L 256 120 L 437 120 C 445.402344 120 452 126.597656 452 135 Z M 452 135 " style=" stroke:none;fill-rule:nonzero;fill:rgb(65.882353%,82.745098%,84.705882%);fill-opacity:1;"/>
<path d="M 256 180 C 198.101562 180 151 227.101562 151 285 C 151 342.898438 198.101562 390 256 390 C 313.898438 390 361 342.898438 361 285 C 361 227.101562 313.898438 180 256 180 Z M 256 180 " style=" stroke:none;fill-rule:nonzero;fill:rgb(40.784314%,32.941176%,30.980392%);fill-opacity:1;"/>
<path d="M 361 285 C 361 342.898438 313.898438 390 256 390 L 256 180 C 313.898438 180 361 227.101562 361 285 Z M 361 285 " style=" stroke:none;fill-rule:nonzero;fill:rgb(32.54902%,26.27451%,24.705882%);fill-opacity:1;"/>
<path d="M 256 240 C 231.097656 240 211 260.097656 211 285 C 211 309.898438 231.097656 330 256 330 C 280.902344 330 301 309.898438 301 285 C 301 260.097656 280.902344 240 256 240 Z M 256 240 " style=" stroke:none;fill-rule:nonzero;fill:rgb(70.980392%,72.941176%,95.294118%);fill-opacity:1;"/>
<path d="M 301 285 C 301 309.898438 280.902344 330 256 330 L 256 240 C 280.902344 240 301 260.097656 301 285 Z M 301 285 " style=" stroke:none;fill-rule:nonzero;fill:rgb(59.215686%,62.352941%,93.72549%);fill-opacity:1;"/>
<path d="M 256 300 C 247.730469 300 241 293.269531 241 285 C 241 276.730469 247.730469 270 256 270 C 264.269531 270 271 276.730469 271 285 C 271 293.269531 264.269531 300 256 300 Z M 256 300 " style=" stroke:none;fill-rule:nonzero;fill:rgb(87.058824%,92.54902%,94.509804%);fill-opacity:1;"/>
<path d="M 271 285 C 271 276.730469 264.269531 270 256 270 L 256 300 C 264.269531 300 271 293.269531 271 285 Z M 271 285 " style=" stroke:none;fill-rule:nonzero;fill:rgb(77.647059%,88.627451%,90.588235%);fill-opacity:1;"/>
<path d="M 512 90 C 512 123 485 150 452 150 L 60 150 C 27 150 0 123 0 90 L 256 60.898438 L 263.5 60 Z M 512 90 " style=" stroke:none;fill-rule:nonzero;fill:rgb(59.215686%,62.352941%,93.72549%);fill-opacity:1;"/>
<path d="M 512 90 C 512 123 485 150 452 150 L 256 150 L 256 60.898438 L 263.5 60 Z M 512 90 " style=" stroke:none;fill-rule:nonzero;fill:rgb(41.960784%,46.666667%,90.980392%);fill-opacity:1;"/>
<path d="M 512 15 L 512 90 L 0 90 L 0 15 C 0 6.597656 6.597656 0 15 0 L 497 0 C 505.402344 0 512 6.597656 512 15 Z M 512 15 " style=" stroke:none;fill-rule:nonzero;fill:rgb(70.980392%,72.941176%,95.294118%);fill-opacity:1;"/>
<path d="M 512 15 L 512 90 L 256 90 L 256 0 L 497 0 C 505.402344 0 512 6.597656 512 15 Z M 512 15 " style=" stroke:none;fill-rule:nonzero;fill:rgb(47.45098%,51.764706%,92.156863%);fill-opacity:1;"/>
</g>
</svg>